HIERARCHY
ROOT Hips
{
	OFFSET 0.00000 0.00000 0.00000
	CHANNELS 6 Xposition Yposition Zposition Yrotation Zrotation Xrotation 
	JOINT Lumbar
	{
		OFFSET 0 0 0
		CHANNELS 3 Zrotation Xrotation Yrotation
		JOINT Neck
		{
			OFFSET 0.00 0.2701 0.00
			CHANNELS 3 Zrotation Xrotation Yrotation
			End Site
			{
				OFFSET 0.00 0.1379 0.00
			}
		}
		JOINT RightShoulder
		{
			OFFSET 0.0119 0.2289 0.1181
			CHANNELS 3 Zrotation Xrotation Yrotation
			JOINT RightElbow
			{
				OFFSET 0.00 -0.1475 0.00
				CHANNELS 2 Zrotation Yrotation
				JOINT RightWrist
				{
					OFFSET 0.00 -0.1605 0.00
					CHANNELS 2 Zrotation Xrotation
					End Site
					{
						OFFSET 0.0040 -0.1068 0.0006
					}
				}
			}
		}
		JOINT LeftShoulder
		{
			OFFSET 0.0119 0.2289 -0.1181
			CHANNELS 3 Zrotation Xrotation Yrotation
			JOINT LeftElbow
			{
				OFFSET 0.00 -0.1475 0.00
				CHANNELS 2 Zrotation Yrotation
				JOINT LeftWrist
				{
					OFFSET 0.00 -0.1605 0.00
					CHANNELS 2 Zrotation Xrotation
					End Site
					{
						OFFSET 0.0040 -0.1068 -0.0006
					}
				}
			}
		}
	}
	JOINT RightHip
	{
		OFFSET 0.0316 -0.0424 0.0458
		CHANNELS 3 Zrotation Xrotation Yrotation
		JOINT RightKnee
		{
			OFFSET 0.00 -0.2438 0.00
			CHANNELS 1 Zrotation
			JOINT RightAnkle
			{
				OFFSET 0.00 -0.2449 0.00
				CHANNELS 3 Zrotation Xrotation Yrotation
				End Site
				{
					OFFSET 0.1237 -0.0542 0.0051
				}
			}
		}
	}
	JOINT LeftHip
	{
		OFFSET 0.0316 -0.0424 -0.0458
		CHANNELS 3 Zrotation Xrotation Yrotation
		JOINT LeftKnee
		{
			OFFSET 0.00 -0.2438 0.00
			CHANNELS 1 Zrotation
			JOINT LeftAnkle
			{
				OFFSET 0.00 -0.2449 0.00
				CHANNELS 3 Zrotation Xrotation Yrotation
				End Site
				{
					OFFSET 0.1237 -0.0542 -0.0051
				}
			}
		}
	}
}
MOTION
Frames: 16
Frame Time: 0.02
-0.23102 -0.24179 0.13512 29.6066 23.34583 -4.66592 10.41751 1.92506 -0.16045 -34.05789 0.89971 -0.83078 -42.97528 -22.29211 7.31972 68.75986 96.881 7.74702 1.5777 -53.50684 7.81404 12.16038 76.83562 -89.02823 12.49202 1.90281 77.32866 -6.00946 -12.4347 -118.57277 -15.33184 -4.41322 -3.44981 64.5411 4.40329 2.41042 -81.57645 -11.93858 3.65649 2.8318
-0.23102 -0.24169 0.13489 29.74002 23.11655 -4.61381 10.40915 1.95266 0.11602 -34.37376 -0.04144 -0.83078 -42.9606 -22.4103 7.54325 68.69742 94.95964 7.34421 0.99459 -53.4491 8.02306 11.49721 77.03211 -88.87918 12.36106 1.9204 77.3453 -6.07741 -12.08768 -118.28992 -15.49669 -4.41944 -3.46352 64.92913 4.19374 2.13536 -83.10658 -11.7614 3.73104 2.86443
-0.23099 -0.24158 0.13461 29.90989 22.89765 -4.57384 10.39937 1.99489 0.43258 -34.67575 -0.93015 -0.83078 -43.02156 -22.56844 7.77088 68.6696 92.51947 6.89614 0.27154 -53.37123 8.16895 10.81801 77.18429 -88.79145 12.24896 1.92441 77.20197 -6.14149 -11.65051 -117.8166 -15.63533 -4.42999 -3.47852 65.28849 3.93835 1.83154 -84.51913 -11.60692 3.79968 2.89372
-0.23097 -0.24147 0.13436 30.06372 22.67308 -4.52871 10.39215 2.03094 0.73165 -34.98134 -1.83743 -0.83078 -43.04769 -22.70209 7.98711 68.62151 90.39134 6.47355 -0.34599 -53.29711 8.32925 10.16491 77.34269 -88.71173 12.13451 1.92695 77.12348 -6.20672 -11.25231 -117.41549 -15.77866 -4.43785 -3.49204 65.66412 3.70594 1.54666 -85.98154 -11.44486 3.86926 2.92377
-0.23098 -0.24136 0.1341 30.21635 22.45269 -4.48201 10.37748 2.06501 1.02924 -35.29982 -2.76826 -0.83078 -43.07624 -22.86265 8.24462 68.59121 87.94242 6.02839 -1.1369 -53.24592 8.54754 9.43206 77.56096 -88.50639 11.99944 1.95688 77.07448 -6.27412 -10.85962 -117.06894 -15.95286 -4.4487 -3.5093 66.02549 3.46362 1.2366 -87.45595 -11.27117 3.94556 2.95669
-0.23093 -0.24125 0.13384 30.37976 22.22577 -4.44157 10.37731 2.10675 1.3383 -35.58607 -3.63725 -0.83078 -43.11634 -22.97674 8.41723 68.53259 86.0358 5.6201 -1.60548 -53.14182 8.63278 8.85991 77.64384 -88.55871 11.90715 1.93027 76.92871 -6.33616 -10.43582 -116.56661 -16.05629 -4.45439 -3.51909 66.41053 3.23189 0.97257 -88.87771 -11.12744 4.00651 2.98283
-0.23076 -0.2411 0.13358 30.56393 21.9809 -4.41433 10.42302 2.16516 1.6757 -35.80513 -4.34548 -0.83078 -43.18379 -22.95107 8.34849 68.38727 85.78054 5.32609 -1.09804 -52.89994 8.34336 8.75709 77.36037 -89.41655 11.95987 1.72753 76.54043 -6.38514 -9.94003 -115.67147 -15.97217 -4.44473 -3.50798 66.86095 3.03384 0.8395 -90.19291 -11.05698 4.02883 2.99272
-0.23054 -0.24095 0.13332 30.75758 21.72854 -4.39309 10.48233 2.23082 2.02198 -35.9887 -4.99329 -0.83078 -43.25745 -22.87771 8.19525 68.21227 86.08378 5.07096 -0.27091 -52.60456 7.92653 8.81295 76.94253 -90.51076 12.04942 1.47275 76.06389 -6.4288 -9.41786 -114.62915 -15.81765 -4.42974 -3.48931 67.33739 2.84908 0.7544 -91.45716 -11.01657 4.03559 2.9957
-0.23034 -0.2408 0.13306 30.94675 21.47804 -4.36993 10.53181 2.29389 2.35972 -36.17663 -5.67076 -0.83078 -43.31964 -22.82699 8.08409 68.05137 86.11423 4.79712 0.37615 -52.33189 7.58293 8.78211 76.58832 -91.42069 12.10018 1.25794 75.63682 -6.47441 -8.91345 -113.66027 -15.69402 -4.41724 -3.47405 67.80661 2.66301 0.64932 -92.73963 -10.96493 4.04807 3.00081
-0.23017 -0.24065 0.13278 31.13783 21.23482 -4.34411 10.59668 2.35499 2.71759 -36.41423 -6.33834 -0.83078 -43.42225 -22.7728 7.95672 67.88993 86.20796 4.5252 1.16528 -52.06668 7.17229 8.81171 76.22214 -92.65013 12.24188 0.9752 75.16221 -6.52176 -8.38158 -112.65462 -15.57312 -4.40466 -3.45888 68.25574 2.45635 0.53527 -94.04171 -10.90388 4.066 3.00995
-0.22993 -0.2405 0.13256 31.32684 20.97402 -4.32467 10.63268 2.42111 3.0355 -36.53952 -7.01134 -0.83078 -43.43955 -22.715 7.84403 67.72101 86.30766 4.26019 1.73611 -51.77173 6.87203 8.75399 75.84907 -93.27862 12.20626 0.81992 74.77076 -6.5644 -7.90171 -111.69608 -15.43144 -4.39086 -3.44176 68.75283 2.29511 0.45201 -95.28867 -10.86924 4.06899 3.00922
-0.2295 -0.24037 0.13252 31.5063 20.67086 -4.32499 10.58602 2.50458 3.23742 -36.36876 -7.72687 -0.83078 -43.23275 -22.64995 7.78388 67.54794 86.30566 3.99629 1.62888 -51.4226 6.90652 8.41081 75.49396 -92.1085 11.64053 1.04562 74.60527 -6.59407 -7.57386 -110.87942 -15.23828 -4.37541 -3.42068 69.37935 2.26717 0.43947 -96.42795 -10.90034 4.03442 2.98208
-0.22901 -0.24024 0.13254 31.68326 20.34947 -4.33082 10.50966 2.59183 3.39925 -36.08537 -8.44761 -0.83078 -42.93684 -22.58444 7.74319 67.36636 86.29084 3.74013 1.29189 -51.04261 7.05702 7.97546 75.13594 -90.33991 10.9008 1.3985 74.5317 -6.6193 -7.29968 -110.12076 -15.02854 -4.35879 -3.39793 70.05249 2.28294 0.45687 -97.50772 -10.95677 3.9854 2.94542
-0.22855 -0.24012 0.13253 31.86244 20.03342 -4.33161 10.44683 2.67378 3.58155 -35.84999 -9.15813 -0.83078 -42.67312 -22.5247 7.69901 67.18262 86.27078 3.48583 1.05785 -50.6672 7.15552 7.58592 74.77689 -88.89875 10.26134 1.68244 74.43386 -6.64758 -6.99966 -109.35239 -14.83443 -4.34245 -3.37627 70.70254 2.27126 0.4624 -98.59487 -11.00146 3.94311 2.91376
-0.22807 -0.23999 0.13253 32.03823 19.72921 -4.34315 10.38484 2.77099 3.7548 -35.6264 -9.90054 -0.83078 -42.44571 -22.43952 7.62857 67.02384 86.31138 3.2089 0.83778 -50.33013 7.24653 7.18505 74.42338 -87.23325 9.53392 2.01126 74.26031 -6.67187 -6.70335 -108.50841 -14.60518 -4.3271 -3.3531 71.36255 2.29079 0.46233 -99.76493 -11.04843 3.89959 2.87909
-0.22762 -0.23986 0.13254 32.21932 19.39652 -4.33375 10.31324 2.83737 3.93713 -35.35242 -10.57746 -0.83078 -42.1202 -22.40822 7.61943 66.81078 86.22195 2.98202 0.53402 -49.90616 7.3823 6.78418 74.05897 -85.88796 8.94761 2.27789 74.26572 -6.70278 -6.41421 -107.8377 -14.44424 -4.30935 -3.3326 72.01123 2.25709 0.4803 -100.74666 -11.09595 3.8554 2.84842
